<svg xmlns="http://www.w3.org/2000/svg" width="820" height="100" viewBox="0 0 820 100" role="img" aria-labelledby="title description">
  <title id="title">Преподавателям</title>
  <desc id="description">Подготовка, ведение и завершение курса</desc>
  <defs>
    <linearGradient id="background" x1="0" y1="0" x2="1" y2="1">
      <stop offset="0" stop-color="#f8f6fd"/>
      <stop offset="1" stop-color="#f1eefb"/>
    </linearGradient>
  </defs>
  <rect x="1" y="1" width="818" height="98" rx="15" fill="url(#background)" stroke="#d3cbe9" stroke-width="2"/>
  <rect x="1" y="18" width="5" height="64" rx="2.5" fill="#9475c8"/>
  <circle cx="50" cy="50" r="29" fill="#ece5fa"/>
  <path d="M50 40c-7-5-14-5-21-2v25c7-3 14-3 21 2 7-5 14-5 21-2V38c-7-3-14-3-21 2Zm0 0v25" fill="none" stroke="#7452a8" stroke-width="2.5" stroke-linecap="round" stroke-linejoin="round"/>
  <text x="98" y="38" fill="#7452a8" font-family="Arial, sans-serif" font-size="11" font-weight="700" letter-spacing="1.5">ИНСТРУКЦИИ</text>
  <text x="98" y="70" fill="#392b5b" font-family="Arial, sans-serif" font-size="25" font-weight="700">Преподавателям</text>
  <path d="M335 20v60" stroke="#d3cbe9" stroke-width="1.5"/>
  <text x="357" y="43" fill="#5e5371" font-family="Arial, sans-serif" font-size="16">Подготовка и ведение курса,</text>
  <text x="357" y="67" fill="#5e5371" font-family="Arial, sans-serif" font-size="16">проверка работ и завершение</text>
  <circle cx="779" cy="50" r="19" fill="#ece5fa"/>
  <path d="M770 50h17m-7-7 7 7-7 7" fill="none" stroke="#7452a8" stroke-width="2.5" stroke-linecap="round" stroke-linejoin="round"/>
</svg>
